<svg xmlns="http://www.w3.org/2000/svg" viewBox="0 0 1000 1000">
    <defs>
        <!-- 主渐变 - 高压电蓝 -->
        <linearGradient id="logoGradient" x1="0%" y1="0%" x2="0%" y2="100%">
            <stop offset="0%" style="stop-color:#00d4ff;stop-opacity:1" />
            <stop offset="100%" style="stop-color:#0099cc;stop-opacity:1" />
        </linearGradient>
        <!-- 发光滤镜 -->
        <filter id="glow" x="-50%" y="-50%" width="200%" height="200%">
            <feGaussianBlur stdDeviation="8" result="coloredBlur"/>
            <feMerge>
                <feMergeNode in="coloredBlur"/>
                <feMergeNode in="SourceGraphic"/>
            </feMerge>
        </filter>
    </defs>
    <g fill="url(#logoGradient)" filter="url(#glow)">
        <g>
            <path
                d="M330 650L400 530L350 500L500 195L650 500L600 530L680 650L780 510L500 0L230 510L330 650Z"></path>
            <path
                d="M500 620L598 760L500 890L400 760L440 700L330 760L500 1000L680 760L560 575L440 575L370 680L500 620Z"></path>
            <path
                d="M460 760L500 810L540 760L500 700L460 760Z"></path>
            <path
                d="M440 480L560 480L500 345L440 480Z"></path>
            <path
                d="M720 710L765 780L1000 900L800 600L720 710Z"></path>
            <path
                d="M280 710L235 780L3 900L200 600L280 710Z"></path>
        </g>
    </g>
</svg>
